<svg width="640" height="180" viewBox="0 0 640 180" fill="none" xmlns="http://www.w3.org/2000/svg">
  <defs>
    <linearGradient id="panel" x1="20" y1="20" x2="140" y2="140" gradientUnits="userSpaceOnUse">
      <stop stop-color="#FFFDF8"/>
      <stop offset="1" stop-color="#F2E9DA"/>
    </linearGradient>
    <linearGradient id="signal" x1="44" y1="112" x2="116" y2="44" gradientUnits="userSpaceOnUse">
      <stop stop-color="#0F766E"/>
      <stop offset="1" stop-color="#14978E"/>
    </linearGradient>
    <filter id="shadow" x="0" y="0" width="180" height="180" filterUnits="userSpaceOnUse" color-interpolation-filters="sRGB">
      <feFlood flood-opacity="0" result="BackgroundImageFix"/>
      <feColorMatrix in="SourceAlpha" type="matrix" values="0 0 0 0 0 0 0 0 0 0 0 0 0 0 0 0 0 0 127 0" result="hardAlpha"/>
      <feOffset dy="10"/>
      <feGaussianBlur stdDeviation="10"/>
      <feColorMatrix type="matrix" values="0 0 0 0 0.102 0 0 0 0 0.122 0 0 0 0 0.094 0 0 0 0.12 0"/>
      <feBlend mode="normal" in2="BackgroundImageFix" result="effect1_dropShadow_1_1"/>
      <feBlend mode="normal" in="SourceGraphic" in2="effect1_dropShadow_1_1" result="shape"/>
    </filter>
  </defs>

  <g filter="url(#shadow)">
    <rect x="20" y="20" width="120" height="120" rx="30" fill="url(#panel)"/>
    <rect x="20.75" y="20.75" width="118.5" height="118.5" rx="29.25" stroke="#0F766E" stroke-opacity="0.16" stroke-width="1.5"/>
  </g>

  <path d="M48 102C58.5 91.5 71 86 85 86C99 86 111.5 91.5 122 102" stroke="url(#signal)" stroke-width="7" stroke-linecap="round"/>
  <path d="M54 82C62.6667 73.3333 73 69 85 69C97 69 107.333 73.3333 116 82" stroke="url(#signal)" stroke-opacity="0.85" stroke-width="6" stroke-linecap="round"/>
  <path d="M60 63C66.6667 56.3333 75 53 85 53C95 53 103.333 56.3333 110 63" stroke="url(#signal)" stroke-opacity="0.65" stroke-width="5" stroke-linecap="round"/>
  <circle cx="85" cy="110" r="10" fill="#0F766E"/>
  <circle cx="85" cy="110" r="18" stroke="#0F766E" stroke-opacity="0.18" stroke-width="4"/>

  <g fill="#1A1F18">
    <text x="176" y="84" font-family="Georgia, 'Times New Roman', serif" font-size="56" font-weight="700" letter-spacing="-2.2">AI Signal</text>
    <text x="179" y="118" font-family="'Segoe UI', Arial, sans-serif" font-size="22" font-weight="600" fill="#0F766E" letter-spacing="3.2">FEED</text>
    <text x="179" y="144" font-family="'Segoe UI', Arial, sans-serif" font-size="17" fill="#586255">Live AI product, release, and research updates</text>
  </g>
</svg>
